<?xml version="1.0" encoding="UTF-8"?>
<svg xmlns="http://www.w3.org/2000/svg" xmlns:xlink="http://www.w3.org/1999/xlink" width="20px" height="20px" viewBox="0 0 20 20" version="1.1">
<g id="surface1">
<path style=" stroke:none;fill-rule:evenodd;fill:rgb(0%,0%,0%);fill-opacity:1;" d="M 17.554688 0 C 18.90625 0 20 1.09375 20 2.445312 L 20 17.554688 C 20 18.90625 18.90625 20 17.554688 20 L 13.398438 20 L 13.398438 12.464844 L 16 12.464844 L 16.492188 9.238281 L 13.398438 9.238281 L 13.398438 7.140625 C 13.398438 6.257812 13.832031 5.398438 15.21875 5.398438 L 16.625 5.398438 L 16.625 2.652344 C 16.625 2.652344 15.347656 2.433594 14.125 2.433594 C 11.574219 2.433594 9.910156 3.980469 9.910156 6.777344 L 9.910156 9.238281 L 7.074219 9.238281 L 7.074219 12.464844 L 9.910156 12.464844 L 9.910156 20 L 2.445312 20 C 1.09375 20 0 18.90625 0 17.554688 L 0 2.445312 C 0 1.09375 1.09375 0 2.445312 0 Z M 17.554688 0 "/>
</g>
</svg>
