<?xml version="1.0" encoding="UTF-8"?>
<svg xmlns="http://www.w3.org/2000/svg" xmlns:xlink="http://www.w3.org/1999/xlink" width="20px" height="20px" viewBox="0 0 20 20" version="1.1">
<g id="surface1">
<path style=" stroke:none;fill-rule:evenodd;fill:rgb(0%,0%,0%);fill-opacity:1;" d="M 17.554688 0 C 18.90625 0 20 1.09375 20 2.445312 L 20 17.554688 C 20 18.90625 18.90625 20 17.554688 20 L 2.445312 20 C 1.09375 20 0 18.90625 0 17.554688 L 0 2.445312 C 0 1.09375 1.09375 0 2.445312 0 Z M 10 2.960938 C 5.929688 2.960938 2.773438 5.941406 2.773438 9.96875 C 2.773438 12.078125 3.636719 13.898438 5.042969 15.15625 C 5.160156 15.261719 5.230469 15.410156 5.238281 15.566406 L 5.277344 16.851562 C 5.289062 17.261719 5.714844 17.527344 6.089844 17.363281 L 7.523438 16.730469 C 7.644531 16.679688 7.78125 16.667969 7.90625 16.703125 C 8.566406 16.882812 9.269531 16.980469 10 16.980469 C 14.070312 16.980469 17.226562 13.996094 17.226562 9.96875 C 17.226562 5.945312 14.074219 2.960938 10 2.960938 Z M 5.660156 12.019531 L 7.785156 8.652344 C 8.121094 8.117188 8.84375 7.984375 9.351562 8.363281 L 11.039062 9.628906 C 11.195312 9.746094 11.40625 9.746094 11.5625 9.628906 L 13.839844 7.898438 C 14.144531 7.667969 14.542969 8.03125 14.339844 8.355469 L 12.21875 11.722656 C 11.878906 12.257812 11.15625 12.390625 10.648438 12.011719 L 8.960938 10.742188 C 8.804688 10.628906 8.59375 10.628906 8.441406 10.746094 L 6.160156 12.476562 C 5.855469 12.707031 5.457031 12.34375 5.660156 12.019531 Z M 5.660156 12.019531 "/>
</g>
</svg>
