<?xml version="1.0" encoding="UTF-8"?>
<svg xmlns="http://www.w3.org/2000/svg" xmlns:xlink="http://www.w3.org/1999/xlink" width="20px" height="20px" viewBox="0 0 20 20" version="1.1">
<g id="surface1">
<path style=" stroke:none;fill-rule:evenodd;fill:rgb(0%,0%,0%);fill-opacity:1;" d="M 17.554688 0 C 18.90625 0 20 1.09375 20 2.445312 L 20 17.554688 C 20 18.90625 18.90625 20 17.554688 20 L 2.445312 20 C 1.09375 20 0 18.90625 0 17.554688 L 0 2.445312 C 0 1.09375 1.09375 0 2.445312 0 Z M 6.269531 16.535156 L 6.269531 7.71875 L 3.335938 7.71875 L 3.335938 16.535156 Z M 16.835938 16.535156 L 16.835938 11.476562 C 16.835938 8.769531 15.390625 7.511719 13.460938 7.511719 C 11.90625 7.511719 11.210938 8.363281 10.820312 8.964844 L 10.820312 7.71875 L 7.890625 7.71875 C 7.929688 8.542969 7.890625 16.535156 7.890625 16.535156 L 10.820312 16.535156 L 10.820312 11.609375 C 10.820312 11.347656 10.839844 11.082031 10.917969 10.894531 C 11.128906 10.367188 11.609375 9.824219 12.421875 9.824219 C 13.480469 9.824219 13.90625 10.632812 13.90625 11.816406 L 13.90625 16.535156 Z M 4.820312 3.464844 C 3.820312 3.464844 3.164062 4.125 3.164062 4.988281 C 3.164062 5.835938 3.800781 6.511719 4.785156 6.511719 L 4.800781 6.511719 C 5.824219 6.511719 6.460938 5.835938 6.460938 4.988281 C 6.441406 4.125 5.824219 3.46875 4.820312 3.464844 Z M 4.820312 3.464844 "/>
</g>
</svg>
