<?xml version="1.0" encoding="UTF-8"?>
<svg xmlns="http://www.w3.org/2000/svg" xmlns:xlink="http://www.w3.org/1999/xlink" width="20px" height="20px" viewBox="0 0 20 20" version="1.1">
<g id="surface1">
<path style=" stroke:none;fill-rule:evenodd;fill:rgb(0%,0%,0%);fill-opacity:1;" d="M 17.554688 0 C 18.90625 0 20 1.09375 20 2.445312 L 20 17.554688 C 20 18.90625 18.90625 20 17.554688 20 L 7.390625 20 C 7.816406 19.285156 8.351562 18.277344 8.566406 17.449219 C 8.699219 16.949219 9.234375 14.90625 9.234375 14.90625 C 9.582031 15.570312 10.601562 16.136719 11.6875 16.136719 C 14.917969 16.136719 17.242188 13.167969 17.242188 9.476562 C 17.242188 5.941406 14.355469 3.292969 10.644531 3.292969 C 6.023438 3.292969 3.570312 6.394531 3.570312 9.773438 C 3.570312 11.34375 4.40625 13.296875 5.742188 13.917969 C 5.945312 14.011719 6.054688 13.972656 6.101562 13.777344 C 6.136719 13.628906 6.316406 12.898438 6.398438 12.5625 C 6.425781 12.453125 6.410156 12.359375 6.324219 12.253906 C 5.882812 11.71875 5.527344 10.730469 5.527344 9.8125 C 5.527344 7.453125 7.316406 5.167969 10.359375 5.167969 C 12.992188 5.167969 14.832031 6.957031 14.832031 9.523438 C 14.832031 12.417969 13.371094 14.421875 11.46875 14.421875 C 10.417969 14.421875 9.628906 13.554688 9.882812 12.488281 C 10.183594 11.21875 10.769531 9.84375 10.769531 8.925781 C 10.769531 8.101562 10.328125 7.417969 9.414062 7.417969 C 8.339844 7.417969 7.476562 8.527344 7.476562 10.015625 C 7.476562 10.964844 7.796875 11.605469 7.796875 11.605469 C 7.796875 11.605469 6.738281 16.089844 6.542969 16.925781 C 6.328125 17.851562 6.410156 19.152344 6.503906 20 L 2.445312 20 C 1.09375 20 0 18.90625 0 17.554688 L 0 2.445312 C 0 1.09375 1.09375 0 2.445312 0 Z M 17.554688 0 "/>
</g>
</svg>
