<?xml version="1.0" encoding="UTF-8"?>
<svg xmlns="http://www.w3.org/2000/svg" xmlns:xlink="http://www.w3.org/1999/xlink" width="20px" height="20px" viewBox="0 0 20 20" version="1.1">
<g id="surface1">
<path style=" stroke:none;fill-rule:evenodd;fill:rgb(0%,0%,0%);fill-opacity:1;" d="M 17.554688 0 C 18.90625 0 20 1.09375 20 2.445312 L 20 17.554688 C 20 18.90625 18.90625 20 17.554688 20 L 2.445312 20 C 1.09375 20 0 18.90625 0 17.554688 L 0 2.445312 C 0 1.09375 1.09375 0 2.445312 0 Z M 7.636719 16.582031 C 12.949219 16.582031 15.851562 12.183594 15.851562 8.371094 C 15.851562 8.246094 15.851562 8.117188 15.84375 8 C 16.40625 7.59375 16.898438 7.082031 17.289062 6.503906 C 16.773438 6.730469 16.214844 6.886719 15.628906 6.957031 C 16.226562 6.597656 16.683594 6.035156 16.898438 5.359375 C 16.34375 5.6875 15.726562 5.925781 15.066406 6.058594 C 14.539062 5.496094 13.792969 5.148438 12.960938 5.148438 C 11.367188 5.148438 10.074219 6.441406 10.074219 8.035156 C 10.074219 8.261719 10.097656 8.484375 10.152344 8.695312 C 7.75 8.574219 5.625 7.425781 4.199219 5.675781 C 3.957031 6.101562 3.8125 6.597656 3.8125 7.125 C 3.8125 8.125 4.320312 9.011719 5.097656 9.527344 C 4.625 9.511719 4.183594 9.382812 3.792969 9.167969 L 3.792969 9.203125 C 3.792969 10.601562 4.789062 11.765625 6.109375 12.035156 C 5.871094 12.101562 5.613281 12.136719 5.351562 12.136719 C 5.164062 12.136719 4.984375 12.117188 4.804688 12.082031 C 5.171875 13.230469 6.238281 14.0625 7.5 14.085938 C 6.511719 14.859375 5.265625 15.320312 3.914062 15.320312 C 3.679688 15.320312 3.453125 15.308594 3.226562 15.277344 C 4.488281 16.105469 6.007812 16.582031 7.636719 16.582031 Z M 7.636719 16.582031 "/>
</g>
</svg>
